<?xml version="1.0" encoding="UTF-8" standalone="no"?>
<!DOCTYPE svg PUBLIC "-//W3C//DTD SVG 1.1//EN"
 "http://www.w3.org/Graphics/SVG/1.1/DTD/svg11.dtd">
<!-- Generated by graphviz version 2.43.0 (0)
 -->
<!-- Title: godep Pages: 1 -->
<svg width="4323pt" height="514pt"
 viewBox="0.00 0.00 4322.50 514.00" xmlns="http://www.w3.org/2000/svg" xmlns:xlink="http://www.w3.org/1999/xlink">
<g id="graph0" class="graph" transform="scale(1 1) rotate(0) translate(4 510)">
<title>godep</title>
<polygon fill="white" stroke="transparent" points="-4,4 -4,-510 4318.5,-510 4318.5,4 -4,4"/>
<!-- github.com/ismdeep/station/app/server/api -->
<g id="node1" class="node">
<title>github.com/ismdeep/station/app/server/api</title>
<g id="a_node1"><a xlink:href="https://godoc.org/github.com/ismdeep/station/app/server/api" xlink:title="github.com/ismdeep/station/app/server/api" target="_blank">
<path fill="paleturquoise" stroke="paleturquoise" d="M2913,-318C2913,-318 2614,-318 2614,-318 2608,-318 2602,-312 2602,-306 2602,-306 2602,-294 2602,-294 2602,-288 2608,-282 2614,-282 2614,-282 2913,-282 2913,-282 2919,-282 2925,-288 2925,-294 2925,-294 2925,-306 2925,-306 2925,-312 2919,-318 2913,-318"/>
<text text-anchor="middle" x="2763.5" y="-296.3" font-family="Times,serif" font-size="14.00">github.com/ismdeep/station/app/server/api</text>
</a>
</g>
</g>
<!-- github.com/ismdeep/station/app/server/conf -->
<g id="node2" class="node">
<title>github.com/ismdeep/station/app/server/conf</title>
<g id="a_node2"><a xlink:href="https://godoc.org/github.com/ismdeep/station/app/server/conf" xlink:title="github.com/ismdeep/station/app/server/conf" target="_blank">
<path fill="paleturquoise" stroke="paleturquoise" d="M1949,-36C1949,-36 1642,-36 1642,-36 1636,-36 1630,-30 1630,-24 1630,-24 1630,-12 1630,-12 1630,-6 1636,0 1642,0 1642,0 1949,0 1949,0 1955,0 1961,-6 1961,-12 1961,-12 1961,-24 1961,-24 1961,-30 1955,-36 1949,-36"/>
<text text-anchor="middle" x="1795.5" y="-14.3" font-family="Times,serif" font-size="14.00">github.com/ismdeep/station/app/server/conf</text>
</a>
</g>
</g>
<!-- github.com/ismdeep/station/app/server/api&#45;&gt;github.com/ismdeep/station/app/server/conf -->
<g id="edge1" class="edge">
<title>github.com/ismdeep/station/app/server/api&#45;&gt;github.com/ismdeep/station/app/server/conf</title>
<path fill="none" stroke="black" d="M2755.25,-281.98C2755.25,-218.93 2755.25,-12 2755.25,-12 2755.25,-12 1966.03,-12 1966.03,-12"/>
<polygon fill="black" stroke="black" points="1966.03,-10.25 1961.03,-12 1966.03,-13.75 1966.03,-10.25"/>
</g>
<!-- github.com/ismdeep/station/app/server/heart -->
<g id="node3" class="node">
<title>github.com/ismdeep/station/app/server/heart</title>
<g id="a_node3"><a xlink:href="https://godoc.org/github.com/ismdeep/station/app/server/heart" xlink:title="github.com/ismdeep/station/app/server/heart" target="_blank">
<path fill="paleturquoise" stroke="paleturquoise" d="M1952,-224C1952,-224 1637,-224 1637,-224 1631,-224 1625,-218 1625,-212 1625,-212 1625,-200 1625,-200 1625,-194 1631,-188 1637,-188 1637,-188 1952,-188 1952,-188 1958,-188 1964,-194 1964,-200 1964,-200 1964,-212 1964,-212 1964,-218 1958,-224 1952,-224"/>
<text text-anchor="middle" x="1794.5" y="-202.3" font-family="Times,serif" font-size="14.00">github.com/ismdeep/station/app/server/heart</text>
</a>
</g>
</g>
<!-- github.com/ismdeep/station/app/server/api&#45;&gt;github.com/ismdeep/station/app/server/heart -->
<g id="edge2" class="edge">
<title>github.com/ismdeep/station/app/server/api&#45;&gt;github.com/ismdeep/station/app/server/heart</title>
<path fill="none" stroke="black" d="M2601.8,-300C2338.76,-300 1847.25,-300 1847.25,-300 1847.25,-300 1847.25,-229.12 1847.25,-229.12"/>
<polygon fill="black" stroke="black" points="1849,-229.12 1847.25,-224.12 1845.5,-229.12 1849,-229.12"/>
</g>
<!-- github.com/ismdeep/station/app/server/store -->
<g id="node4" class="node">
<title>github.com/ismdeep/station/app/server/store</title>
<g id="a_node4"><a xlink:href="https://godoc.org/github.com/ismdeep/station/app/server/store" xlink:title="github.com/ismdeep/station/app/server/store" target="_blank">
<path fill="paleturquoise" stroke="paleturquoise" d="M2319.5,-224C2319.5,-224 2005.5,-224 2005.5,-224 1999.5,-224 1993.5,-218 1993.5,-212 1993.5,-212 1993.5,-200 1993.5,-200 1993.5,-194 1999.5,-188 2005.5,-188 2005.5,-188 2319.5,-188 2319.5,-188 2325.5,-188 2331.5,-194 2331.5,-200 2331.5,-200 2331.5,-212 2331.5,-212 2331.5,-218 2325.5,-224 2319.5,-224"/>
<text text-anchor="middle" x="2162.5" y="-202.3" font-family="Times,serif" font-size="14.00">github.com/ismdeep/station/app/server/store</text>
</a>
</g>
</g>
<!-- github.com/ismdeep/station/app/server/api&#45;&gt;github.com/ismdeep/station/app/server/store -->
<g id="edge3" class="edge">
<title>github.com/ismdeep/station/app/server/api&#45;&gt;github.com/ismdeep/station/app/server/store</title>
<path fill="none" stroke="black" d="M2601.92,-291C2441.34,-291 2218.83,-291 2218.83,-291 2218.83,-291 2218.83,-229.03 2218.83,-229.03"/>
<polygon fill="black" stroke="black" points="2220.58,-229.03 2218.83,-224.03 2217.08,-229.03 2220.58,-229.03"/>
</g>
<!-- github.com/ismdeep/station/internal/enums -->
<g id="node5" class="node">
<title>github.com/ismdeep/station/internal/enums</title>
<g id="a_node5"><a xlink:href="https://godoc.org/github.com/ismdeep/station/internal/enums" xlink:title="github.com/ismdeep/station/internal/enums" target="_blank">
<path fill="paleturquoise" stroke="paleturquoise" d="M2735.5,-224C2735.5,-224 2431.5,-224 2431.5,-224 2425.5,-224 2419.5,-218 2419.5,-212 2419.5,-212 2419.5,-200 2419.5,-200 2419.5,-194 2425.5,-188 2431.5,-188 2431.5,-188 2735.5,-188 2735.5,-188 2741.5,-188 2747.5,-194 2747.5,-200 2747.5,-200 2747.5,-212 2747.5,-212 2747.5,-218 2741.5,-224 2735.5,-224"/>
<text text-anchor="middle" x="2583.5" y="-202.3" font-family="Times,serif" font-size="14.00">github.com/ismdeep/station/internal/enums</text>
</a>
</g>
</g>
<!-- github.com/ismdeep/station/app/server/api&#45;&gt;github.com/ismdeep/station/internal/enums -->
<g id="edge4" class="edge">
<title>github.com/ismdeep/station/app/server/api&#45;&gt;github.com/ismdeep/station/internal/enums</title>
<path fill="none" stroke="black" d="M2674.75,-281.88C2674.75,-281.88 2674.75,-229.07 2674.75,-229.07"/>
<polygon fill="black" stroke="black" points="2676.5,-229.07 2674.75,-224.07 2673,-229.07 2676.5,-229.07"/>
</g>
<!-- github.com/ismdeep/station/internal/model -->
<g id="node6" class="node">
<title>github.com/ismdeep/station/internal/model</title>
<g id="a_node6"><a xlink:href="https://godoc.org/github.com/ismdeep/station/internal/model" xlink:title="github.com/ismdeep/station/internal/model" target="_blank">
<path fill="paleturquoise" stroke="paleturquoise" d="M2499.5,-130C2499.5,-130 2199.5,-130 2199.5,-130 2193.5,-130 2187.5,-124 2187.5,-118 2187.5,-118 2187.5,-106 2187.5,-106 2187.5,-100 2193.5,-94 2199.5,-94 2199.5,-94 2499.5,-94 2499.5,-94 2505.5,-94 2511.5,-100 2511.5,-106 2511.5,-106 2511.5,-118 2511.5,-118 2511.5,-124 2505.5,-130 2499.5,-130"/>
<text text-anchor="middle" x="2349.5" y="-108.3" font-family="Times,serif" font-size="14.00">github.com/ismdeep/station/internal/model</text>
</a>
</g>
</g>
<!-- github.com/ismdeep/station/app/server/api&#45;&gt;github.com/ismdeep/station/internal/model -->
<g id="edge5" class="edge">
<title>github.com/ismdeep/station/app/server/api&#45;&gt;github.com/ismdeep/station/internal/model</title>
<path fill="none" stroke="black" d="M2601.76,-286C2495.3,-286 2375.5,-286 2375.5,-286 2375.5,-286 2375.5,-135.29 2375.5,-135.29"/>
<polygon fill="black" stroke="black" points="2377.25,-135.29 2375.5,-130.29 2373.75,-135.29 2377.25,-135.29"/>
</g>
<!-- github.com/ismdeep/station/internal/request -->
<g id="node7" class="node">
<title>github.com/ismdeep/station/internal/request</title>
<g id="a_node7"><a xlink:href="https://godoc.org/github.com/ismdeep/station/internal/request" xlink:title="github.com/ismdeep/station/internal/request" target="_blank">
<path fill="paleturquoise" stroke="paleturquoise" d="M3100,-224C3100,-224 2789,-224 2789,-224 2783,-224 2777,-218 2777,-212 2777,-212 2777,-200 2777,-200 2777,-194 2783,-188 2789,-188 2789,-188 3100,-188 3100,-188 3106,-188 3112,-194 3112,-200 3112,-200 3112,-212 3112,-212 3112,-218 3106,-224 3100,-224"/>
<text text-anchor="middle" x="2944.5" y="-202.3" font-family="Times,serif" font-size="14.00">github.com/ismdeep/station/internal/request</text>
</a>
</g>
</g>
<!-- github.com/ismdeep/station/app/server/api&#45;&gt;github.com/ismdeep/station/internal/request -->
<g id="edge6" class="edge">
<title>github.com/ismdeep/station/app/server/api&#45;&gt;github.com/ismdeep/station/internal/request</title>
<path fill="none" stroke="black" d="M2851,-281.88C2851,-281.88 2851,-229.07 2851,-229.07"/>
<polygon fill="black" stroke="black" points="2852.75,-229.07 2851,-224.07 2849.25,-229.07 2852.75,-229.07"/>
</g>
<!-- github.com/ismdeep/station/internal/response -->
<g id="node8" class="node">
<title>github.com/ismdeep/station/internal/response</title>
<g id="a_node8"><a xlink:href="https://godoc.org/github.com/ismdeep/station/internal/response" xlink:title="github.com/ismdeep/station/internal/response" target="_blank">
<path fill="paleturquoise" stroke="paleturquoise" d="M3096,-130C3096,-130 2775,-130 2775,-130 2769,-130 2763,-124 2763,-118 2763,-118 2763,-106 2763,-106 2763,-100 2769,-94 2775,-94 2775,-94 3096,-94 3096,-94 3102,-94 3108,-100 3108,-106 3108,-106 3108,-118 3108,-118 3108,-124 3102,-130 3096,-130"/>
<text text-anchor="middle" x="2935.5" y="-108.3" font-family="Times,serif" font-size="14.00">github.com/ismdeep/station/internal/response</text>
</a>
</g>
</g>
<!-- github.com/ismdeep/station/app/server/api&#45;&gt;github.com/ismdeep/station/internal/response -->
<g id="edge7" class="edge">
<title>github.com/ismdeep/station/app/server/api&#45;&gt;github.com/ismdeep/station/internal/response</title>
<path fill="none" stroke="black" d="M2772.33,-281.97C2772.33,-281.97 2772.33,-135.25 2772.33,-135.25"/>
<polygon fill="black" stroke="black" points="2774.08,-135.25 2772.33,-130.25 2770.58,-135.25 2774.08,-135.25"/>
</g>
<!-- github.com/ismdeep/station/internal/version -->
<g id="node9" class="node">
<title>github.com/ismdeep/station/internal/version</title>
<g id="a_node9"><a xlink:href="https://godoc.org/github.com/ismdeep/station/internal/version" xlink:title="github.com/ismdeep/station/internal/version" target="_blank">
<path fill="paleturquoise" stroke="paleturquoise" d="M3522,-224C3522,-224 3213,-224 3213,-224 3207,-224 3201,-218 3201,-212 3201,-212 3201,-200 3201,-200 3201,-194 3207,-188 3213,-188 3213,-188 3522,-188 3522,-188 3528,-188 3534,-194 3534,-200 3534,-200 3534,-212 3534,-212 3534,-218 3528,-224 3522,-224"/>
<text text-anchor="middle" x="3367.5" y="-202.3" font-family="Times,serif" font-size="14.00">github.com/ismdeep/station/internal/version</text>
</a>
</g>
</g>
<!-- github.com/ismdeep/station/app/server/api&#45;&gt;github.com/ismdeep/station/internal/version -->
<g id="edge8" class="edge">
<title>github.com/ismdeep/station/app/server/api&#45;&gt;github.com/ismdeep/station/internal/version</title>
<path fill="none" stroke="black" d="M2925.36,-291C3104.27,-291 3367.5,-291 3367.5,-291 3367.5,-291 3367.5,-229.03 3367.5,-229.03"/>
<polygon fill="black" stroke="black" points="3369.25,-229.03 3367.5,-224.03 3365.75,-229.03 3369.25,-229.03"/>
</g>
<!-- github.com/ismdeep/station/pkg/middleware -->
<g id="node10" class="node">
<title>github.com/ismdeep/station/pkg/middleware</title>
<g id="a_node10"><a xlink:href="https://godoc.org/github.com/ismdeep/station/pkg/middleware" xlink:title="github.com/ismdeep/station/pkg/middleware" target="_blank">
<path fill="paleturquoise" stroke="paleturquoise" d="M3886,-224C3886,-224 3575,-224 3575,-224 3569,-224 3563,-218 3563,-212 3563,-212 3563,-200 3563,-200 3563,-194 3569,-188 3575,-188 3575,-188 3886,-188 3886,-188 3892,-188 3898,-194 3898,-200 3898,-200 3898,-212 3898,-212 3898,-218 3892,-224 3886,-224"/>
<text text-anchor="middle" x="3730.5" y="-202.3" font-family="Times,serif" font-size="14.00">github.com/ismdeep/station/pkg/middleware</text>
</a>
</g>
</g>
<!-- github.com/ismdeep/station/app/server/api&#45;&gt;github.com/ismdeep/station/pkg/middleware -->
<g id="edge9" class="edge">
<title>github.com/ismdeep/station/app/server/api&#45;&gt;github.com/ismdeep/station/pkg/middleware</title>
<path fill="none" stroke="black" d="M2925.08,-300C3200.29,-300 3730.5,-300 3730.5,-300 3730.5,-300 3730.5,-229.12 3730.5,-229.12"/>
<polygon fill="black" stroke="black" points="3732.25,-229.12 3730.5,-224.12 3728.75,-229.12 3732.25,-229.12"/>
</g>
<!-- github.com/ismdeep/station/pkg/quantumid -->
<g id="node11" class="node">
<title>github.com/ismdeep/station/pkg/quantumid</title>
<g id="a_node11"><a xlink:href="https://godoc.org/github.com/ismdeep/station/pkg/quantumid" xlink:title="github.com/ismdeep/station/pkg/quantumid" target="_blank">
<path fill="paleturquoise" stroke="paleturquoise" d="M4302.5,-224C4302.5,-224 3998.5,-224 3998.5,-224 3992.5,-224 3986.5,-218 3986.5,-212 3986.5,-212 3986.5,-200 3986.5,-200 3986.5,-194 3992.5,-188 3998.5,-188 3998.5,-188 4302.5,-188 4302.5,-188 4308.5,-188 4314.5,-194 4314.5,-200 4314.5,-200 4314.5,-212 4314.5,-212 4314.5,-218 4308.5,-224 4302.5,-224"/>
<text text-anchor="middle" x="4150.5" y="-202.3" font-family="Times,serif" font-size="14.00">github.com/ismdeep/station/pkg/quantumid</text>
</a>
</g>
</g>
<!-- github.com/ismdeep/station/app/server/api&#45;&gt;github.com/ismdeep/station/pkg/quantumid -->
<g id="edge10" class="edge">
<title>github.com/ismdeep/station/app/server/api&#45;&gt;github.com/ismdeep/station/pkg/quantumid</title>
<path fill="none" stroke="black" d="M2925.32,-309C3291.2,-309 4150.5,-309 4150.5,-309 4150.5,-309 4150.5,-229.41 4150.5,-229.41"/>
<polygon fill="black" stroke="black" points="4152.25,-229.41 4150.5,-224.41 4148.75,-229.41 4152.25,-229.41"/>
</g>
<!-- github.com/ismdeep/station/pkg/youtube -->
<g id="node12" class="node">
<title>github.com/ismdeep/station/pkg/youtube</title>
<g id="a_node12"><a xlink:href="https://godoc.org/github.com/ismdeep/station/pkg/youtube" xlink:title="github.com/ismdeep/station/pkg/youtube" target="_blank">
<path fill="paleturquoise" stroke="paleturquoise" d="M1524.5,-224C1524.5,-224 1240.5,-224 1240.5,-224 1234.5,-224 1228.5,-218 1228.5,-212 1228.5,-212 1228.5,-200 1228.5,-200 1228.5,-194 1234.5,-188 1240.5,-188 1240.5,-188 1524.5,-188 1524.5,-188 1530.5,-188 1536.5,-194 1536.5,-200 1536.5,-200 1536.5,-212 1536.5,-212 1536.5,-218 1530.5,-224 1524.5,-224"/>
<text text-anchor="middle" x="1382.5" y="-202.3" font-family="Times,serif" font-size="14.00">github.com/ismdeep/station/pkg/youtube</text>
</a>
</g>
</g>
<!-- github.com/ismdeep/station/app/server/api&#45;&gt;github.com/ismdeep/station/pkg/youtube -->
<g id="edge11" class="edge">
<title>github.com/ismdeep/station/app/server/api&#45;&gt;github.com/ismdeep/station/pkg/youtube</title>
<path fill="none" stroke="black" d="M2601.77,-309C2253.91,-309 1465.83,-309 1465.83,-309 1465.83,-309 1465.83,-229.41 1465.83,-229.41"/>
<polygon fill="black" stroke="black" points="1467.58,-229.41 1465.83,-224.41 1464.08,-229.41 1467.58,-229.41"/>
</g>
<!-- github.com/ismdeep/station/app/server/cache -->
<g id="node13" class="node">
<title>github.com/ismdeep/station/app/server/cache</title>
<g id="a_node13"><a xlink:href="https://godoc.org/github.com/ismdeep/station/app/server/cache" xlink:title="github.com/ismdeep/station/app/server/cache" target="_blank">
<path fill="paleturquoise" stroke="paleturquoise" d="M1954,-130C1954,-130 1637,-130 1637,-130 1631,-130 1625,-124 1625,-118 1625,-118 1625,-106 1625,-106 1625,-100 1631,-94 1637,-94 1637,-94 1954,-94 1954,-94 1960,-94 1966,-100 1966,-106 1966,-106 1966,-118 1966,-118 1966,-124 1960,-130 1954,-130"/>
<text text-anchor="middle" x="1795.5" y="-108.3" font-family="Times,serif" font-size="14.00">github.com/ismdeep/station/app/server/cache</text>
</a>
</g>
</g>
<!-- github.com/ismdeep/station/app/server/heart&#45;&gt;github.com/ismdeep/station/app/server/cache -->
<g id="edge15" class="edge">
<title>github.com/ismdeep/station/app/server/heart&#45;&gt;github.com/ismdeep/station/app/server/cache</title>
<path fill="none" stroke="black" d="M1794.5,-187.88C1794.5,-187.88 1794.5,-135.07 1794.5,-135.07"/>
<polygon fill="black" stroke="black" points="1796.25,-135.07 1794.5,-130.07 1792.75,-135.07 1796.25,-135.07"/>
</g>
<!-- github.com/ismdeep/station/app/server/store&#45;&gt;github.com/ismdeep/station/app/server/conf -->
<g id="edge18" class="edge">
<title>github.com/ismdeep/station/app/server/store&#45;&gt;github.com/ismdeep/station/app/server/conf</title>
<path fill="none" stroke="black" d="M2122.83,-187.88C2122.83,-141.85 2122.83,-24 2122.83,-24 2122.83,-24 1966.08,-24 1966.08,-24"/>
<polygon fill="black" stroke="black" points="1966.08,-22.25 1961.08,-24 1966.08,-25.75 1966.08,-22.25"/>
</g>
<!-- github.com/ismdeep/station/app/server/store&#45;&gt;github.com/ismdeep/station/internal/model -->
<g id="edge19" class="edge">
<title>github.com/ismdeep/station/app/server/store&#45;&gt;github.com/ismdeep/station/internal/model</title>
<path fill="none" stroke="black" d="M2235.5,-187.88C2235.5,-187.88 2235.5,-135.07 2235.5,-135.07"/>
<polygon fill="black" stroke="black" points="2237.25,-135.07 2235.5,-130.07 2233.75,-135.07 2237.25,-135.07"/>
</g>
<!-- github.com/ismdeep/station/app/server/store&#45;&gt;github.com/ismdeep/station/internal/response -->
<g id="edge20" class="edge">
<title>github.com/ismdeep/station/app/server/store&#45;&gt;github.com/ismdeep/station/internal/response</title>
<path fill="none" stroke="black" d="M2283.5,-187.89C2283.5,-178.1 2283.5,-168 2283.5,-168 2283.5,-168 2767.67,-168 2767.67,-168 2767.67,-168 2767.67,-135.03 2767.67,-135.03"/>
<polygon fill="black" stroke="black" points="2769.42,-135.03 2767.67,-130.03 2765.92,-135.03 2769.42,-135.03"/>
</g>
<!-- github.com/ismdeep/station/internal/schema -->
<g id="node17" class="node">
<title>github.com/ismdeep/station/internal/schema</title>
<g id="a_node17"><a xlink:href="https://godoc.org/github.com/ismdeep/station/internal/schema" xlink:title="github.com/ismdeep/station/internal/schema" target="_blank">
<path fill="paleturquoise" stroke="paleturquoise" d="M1020,-36C1020,-36 709,-36 709,-36 703,-36 697,-30 697,-24 697,-24 697,-12 697,-12 697,-6 703,0 709,0 709,0 1020,0 1020,0 1026,0 1032,-6 1032,-12 1032,-12 1032,-24 1032,-24 1032,-30 1026,-36 1020,-36"/>
<text text-anchor="middle" x="864.5" y="-14.3" font-family="Times,serif" font-size="14.00">github.com/ismdeep/station/internal/schema</text>
</a>
</g>
</g>
<!-- github.com/ismdeep/station/app/server/store&#45;&gt;github.com/ismdeep/station/internal/schema -->
<g id="edge21" class="edge">
<title>github.com/ismdeep/station/app/server/store&#45;&gt;github.com/ismdeep/station/internal/schema</title>
<path fill="none" stroke="black" d="M2058.17,-187.86C2058.17,-149.77 2058.17,-65 2058.17,-65 2058.17,-65 920.33,-65 920.33,-65 920.33,-65 920.33,-41.04 920.33,-41.04"/>
<polygon fill="black" stroke="black" points="922.08,-41.04 920.33,-36.04 918.58,-41.04 922.08,-41.04"/>
</g>
<!-- github.com/ismdeep/station/app/server/cache&#45;&gt;github.com/ismdeep/station/app/server/conf -->
<g id="edge12" class="edge">
<title>github.com/ismdeep/station/app/server/cache&#45;&gt;github.com/ismdeep/station/app/server/conf</title>
<path fill="none" stroke="black" d="M1795.5,-93.88C1795.5,-93.88 1795.5,-41.07 1795.5,-41.07"/>
<polygon fill="black" stroke="black" points="1797.25,-41.07 1795.5,-36.07 1793.75,-41.07 1797.25,-41.07"/>
</g>
<!-- github.com/ismdeep/station/app/server/cron -->
<g id="node14" class="node">
<title>github.com/ismdeep/station/app/server/cron</title>
<g id="a_node14"><a xlink:href="https://godoc.org/github.com/ismdeep/station/app/server/cron" xlink:title="github.com/ismdeep/station/app/server/cron" target="_blank">
<path fill="paleturquoise" stroke="paleturquoise" d="M1402.5,-412C1402.5,-412 1094.5,-412 1094.5,-412 1088.5,-412 1082.5,-406 1082.5,-400 1082.5,-400 1082.5,-388 1082.5,-388 1082.5,-382 1088.5,-376 1094.5,-376 1094.5,-376 1402.5,-376 1402.5,-376 1408.5,-376 1414.5,-382 1414.5,-388 1414.5,-388 1414.5,-400 1414.5,-400 1414.5,-406 1408.5,-412 1402.5,-412"/>
<text text-anchor="middle" x="1248.5" y="-390.3" font-family="Times,serif" font-size="14.00">github.com/ismdeep/station/app/server/cron</text>
</a>
</g>
</g>
<!-- github.com/ismdeep/station/app/server/worker -->
<g id="node15" class="node">
<title>github.com/ismdeep/station/app/server/worker</title>
<g id="a_node15"><a xlink:href="https://godoc.org/github.com/ismdeep/station/app/server/worker" xlink:title="github.com/ismdeep/station/app/server/worker" target="_blank">
<path fill="paleturquoise" stroke="paleturquoise" d="M1289,-318C1289,-318 962,-318 962,-318 956,-318 950,-312 950,-306 950,-306 950,-294 950,-294 950,-288 956,-282 962,-282 962,-282 1289,-282 1289,-282 1295,-282 1301,-288 1301,-294 1301,-294 1301,-306 1301,-306 1301,-312 1295,-318 1289,-318"/>
<text text-anchor="middle" x="1125.5" y="-296.3" font-family="Times,serif" font-size="14.00">github.com/ismdeep/station/app/server/worker</text>
</a>
</g>
</g>
<!-- github.com/ismdeep/station/app/server/cron&#45;&gt;github.com/ismdeep/station/app/server/worker -->
<g id="edge13" class="edge">
<title>github.com/ismdeep/station/app/server/cron&#45;&gt;github.com/ismdeep/station/app/server/worker</title>
<path fill="none" stroke="black" d="M1191.75,-375.88C1191.75,-375.88 1191.75,-323.07 1191.75,-323.07"/>
<polygon fill="black" stroke="black" points="1193.5,-323.07 1191.75,-318.07 1190,-323.07 1193.5,-323.07"/>
</g>
<!-- github.com/ismdeep/station/app/server/worker&#45;&gt;github.com/ismdeep/station/app/server/conf -->
<g id="edge22" class="edge">
<title>github.com/ismdeep/station/app/server/worker&#45;&gt;github.com/ismdeep/station/app/server/conf</title>
<path fill="none" stroke="black" d="M1199.1,-281.93C1199.1,-219.69 1199.1,-18 1199.1,-18 1199.1,-18 1624.77,-18 1624.77,-18"/>
<polygon fill="black" stroke="black" points="1624.77,-19.75 1629.77,-18 1624.77,-16.25 1624.77,-19.75"/>
</g>
<!-- github.com/ismdeep/station/app/server/worker&#45;&gt;github.com/ismdeep/station/app/server/heart -->
<g id="edge24" class="edge">
<title>github.com/ismdeep/station/app/server/worker&#45;&gt;github.com/ismdeep/station/app/server/heart</title>
<path fill="none" stroke="black" d="M1301.31,-295C1457.15,-295 1660.17,-295 1660.17,-295 1660.17,-295 1660.17,-229.01 1660.17,-229.01"/>
<polygon fill="black" stroke="black" points="1661.92,-229.01 1660.17,-224.01 1658.42,-229.01 1661.92,-229.01"/>
</g>
<!-- github.com/ismdeep/station/app/server/worker&#45;&gt;github.com/ismdeep/station/app/server/store -->
<g id="edge26" class="edge">
<title>github.com/ismdeep/station/app/server/worker&#45;&gt;github.com/ismdeep/station/app/server/store</title>
<path fill="none" stroke="black" d="M1301.11,-304C1583.25,-304 2106.17,-304 2106.17,-304 2106.17,-304 2106.17,-229.43 2106.17,-229.43"/>
<polygon fill="black" stroke="black" points="2107.92,-229.43 2106.17,-224.43 2104.42,-229.43 2107.92,-229.43"/>
</g>
<!-- github.com/ismdeep/station/app/server/worker&#45;&gt;github.com/ismdeep/station/pkg/youtube -->
<g id="edge31" class="edge">
<title>github.com/ismdeep/station/app/server/worker&#45;&gt;github.com/ismdeep/station/pkg/youtube</title>
<path fill="none" stroke="black" d="M1264.75,-281.88C1264.75,-281.88 1264.75,-229.07 1264.75,-229.07"/>
<polygon fill="black" stroke="black" points="1266.5,-229.07 1264.75,-224.07 1263,-229.07 1266.5,-229.07"/>
</g>
<!-- github.com/ismdeep/station/app/server/global -->
<g id="node16" class="node">
<title>github.com/ismdeep/station/app/server/global</title>
<g id="a_node16"><a xlink:href="https://godoc.org/github.com/ismdeep/station/app/server/global" xlink:title="github.com/ismdeep/station/app/server/global" target="_blank">
<path fill="paleturquoise" stroke="paleturquoise" d="M1024.5,-130C1024.5,-130 704.5,-130 704.5,-130 698.5,-130 692.5,-124 692.5,-118 692.5,-118 692.5,-106 692.5,-106 692.5,-100 698.5,-94 704.5,-94 704.5,-94 1024.5,-94 1024.5,-94 1030.5,-94 1036.5,-100 1036.5,-106 1036.5,-106 1036.5,-118 1036.5,-118 1036.5,-124 1030.5,-130 1024.5,-130"/>
<text text-anchor="middle" x="864.5" y="-108.3" font-family="Times,serif" font-size="14.00">github.com/ismdeep/station/app/server/global</text>
</a>
</g>
</g>
<!-- github.com/ismdeep/station/app/server/worker&#45;&gt;github.com/ismdeep/station/app/server/global -->
<g id="edge23" class="edge">
<title>github.com/ismdeep/station/app/server/worker&#45;&gt;github.com/ismdeep/station/app/server/global</title>
<path fill="none" stroke="black" d="M1140.3,-281.97C1140.3,-234.92 1140.3,-112 1140.3,-112 1140.3,-112 1041.82,-112 1041.82,-112"/>
<polygon fill="black" stroke="black" points="1041.82,-110.25 1036.82,-112 1041.82,-113.75 1041.82,-110.25"/>
</g>
<!-- github.com/ismdeep/station/app/server/worker&#45;&gt;github.com/ismdeep/station/internal/schema -->
<g id="edge27" class="edge">
<title>github.com/ismdeep/station/app/server/worker&#45;&gt;github.com/ismdeep/station/internal/schema</title>
<path fill="none" stroke="black" d="M1169.7,-281.8C1169.7,-218.09 1169.7,-9 1169.7,-9 1169.7,-9 1037.28,-9 1037.28,-9"/>
<polygon fill="black" stroke="black" points="1037.28,-7.25 1032.28,-9 1037.28,-10.75 1037.28,-7.25"/>
</g>
<!-- github.com/ismdeep/station/app/server/runner -->
<g id="node18" class="node">
<title>github.com/ismdeep/station/app/server/runner</title>
<g id="a_node18"><a xlink:href="https://godoc.org/github.com/ismdeep/station/app/server/runner" xlink:title="github.com/ismdeep/station/app/server/runner" target="_blank">
<path fill="paleturquoise" stroke="paleturquoise" d="M685.5,-224C685.5,-224 359.5,-224 359.5,-224 353.5,-224 347.5,-218 347.5,-212 347.5,-212 347.5,-200 347.5,-200 347.5,-194 353.5,-188 359.5,-188 359.5,-188 685.5,-188 685.5,-188 691.5,-188 697.5,-194 697.5,-200 697.5,-200 697.5,-212 697.5,-212 697.5,-218 691.5,-224 685.5,-224"/>
<text text-anchor="middle" x="522.5" y="-202.3" font-family="Times,serif" font-size="14.00">github.com/ismdeep/station/app/server/runner</text>
</a>
</g>
</g>
<!-- github.com/ismdeep/station/app/server/worker&#45;&gt;github.com/ismdeep/station/app/server/runner -->
<g id="edge25" class="edge">
<title>github.com/ismdeep/station/app/server/worker&#45;&gt;github.com/ismdeep/station/app/server/runner</title>
<path fill="none" stroke="black" d="M949.87,-294C771.86,-294 522.5,-294 522.5,-294 522.5,-294 522.5,-229.23 522.5,-229.23"/>
<polygon fill="black" stroke="black" points="524.25,-229.23 522.5,-224.23 520.75,-229.23 524.25,-229.23"/>
</g>
<!-- github.com/ismdeep/station/pkg/blog -->
<g id="node19" class="node">
<title>github.com/ismdeep/station/pkg/blog</title>
<g id="a_node19"><a xlink:href="https://godoc.org/github.com/ismdeep/station/pkg/blog" xlink:title="github.com/ismdeep/station/pkg/blog" target="_blank">
<path fill="paleturquoise" stroke="paleturquoise" d="M651,-130C651,-130 394,-130 394,-130 388,-130 382,-124 382,-118 382,-118 382,-106 382,-106 382,-100 388,-94 394,-94 394,-94 651,-94 651,-94 657,-94 663,-100 663,-106 663,-106 663,-118 663,-118 663,-124 657,-130 651,-130"/>
<text text-anchor="middle" x="522.5" y="-108.3" font-family="Times,serif" font-size="14.00">github.com/ismdeep/station/pkg/blog</text>
</a>
</g>
</g>
<!-- github.com/ismdeep/station/app/server/worker&#45;&gt;github.com/ismdeep/station/pkg/blog -->
<g id="edge29" class="edge">
<title>github.com/ismdeep/station/app/server/worker&#45;&gt;github.com/ismdeep/station/pkg/blog</title>
<path fill="none" stroke="black" d="M1110.9,-281.79C1110.9,-241.62 1110.9,-149 1110.9,-149 1110.9,-149 569.33,-149 569.33,-149 569.33,-149 569.33,-135.07 569.33,-135.07"/>
<polygon fill="black" stroke="black" points="571.08,-135.07 569.33,-130.07 567.58,-135.07 571.08,-135.07"/>
</g>
<!-- github.com/ismdeep/station/pkg/bilibili -->
<g id="node20" class="node">
<title>github.com/ismdeep/station/pkg/bilibili</title>
<g id="a_node20"><a xlink:href="https://godoc.org/github.com/ismdeep/station/pkg/bilibili" xlink:title="github.com/ismdeep/station/pkg/bilibili" target="_blank">
<path fill="paleturquoise" stroke="paleturquoise" d="M1069.5,-224C1069.5,-224 797.5,-224 797.5,-224 791.5,-224 785.5,-218 785.5,-212 785.5,-212 785.5,-200 785.5,-200 785.5,-194 791.5,-188 797.5,-188 797.5,-188 1069.5,-188 1069.5,-188 1075.5,-188 1081.5,-194 1081.5,-200 1081.5,-200 1081.5,-212 1081.5,-212 1081.5,-218 1075.5,-224 1069.5,-224"/>
<text text-anchor="middle" x="933.5" y="-202.3" font-family="Times,serif" font-size="14.00">github.com/ismdeep/station/pkg/bilibili</text>
</a>
</g>
</g>
<!-- github.com/ismdeep/station/app/server/worker&#45;&gt;github.com/ismdeep/station/pkg/bilibili -->
<g id="edge28" class="edge">
<title>github.com/ismdeep/station/app/server/worker&#45;&gt;github.com/ismdeep/station/pkg/bilibili</title>
<path fill="none" stroke="black" d="M1015.75,-281.88C1015.75,-281.88 1015.75,-229.07 1015.75,-229.07"/>
<polygon fill="black" stroke="black" points="1017.5,-229.07 1015.75,-224.07 1014,-229.07 1017.5,-229.07"/>
</g>
<!-- github.com/ismdeep/station/pkg/github/release -->
<g id="node21" class="node">
<title>github.com/ismdeep/station/pkg/github/release</title>
<g id="a_node21"><a xlink:href="https://godoc.org/github.com/ismdeep/station/pkg/github/release" xlink:title="github.com/ismdeep/station/pkg/github/release" target="_blank">
<path fill="paleturquoise" stroke="paleturquoise" d="M341,-130C341,-130 12,-130 12,-130 6,-130 0,-124 0,-118 0,-118 0,-106 0,-106 0,-100 6,-94 12,-94 12,-94 341,-94 341,-94 347,-94 353,-100 353,-106 353,-106 353,-118 353,-118 353,-124 347,-130 341,-130"/>
<text text-anchor="middle" x="176.5" y="-108.3" font-family="Times,serif" font-size="14.00">github.com/ismdeep/station/pkg/github/release</text>
</a>
</g>
</g>
<!-- github.com/ismdeep/station/app/server/worker&#45;&gt;github.com/ismdeep/station/pkg/github/release -->
<g id="edge30" class="edge">
<title>github.com/ismdeep/station/app/server/worker&#45;&gt;github.com/ismdeep/station/pkg/github/release</title>
<path fill="none" stroke="black" d="M949.83,-306C674.82,-306 173.75,-306 173.75,-306 173.75,-306 173.75,-135.25 173.75,-135.25"/>
<polygon fill="black" stroke="black" points="175.5,-135.25 173.75,-130.25 172,-135.25 175.5,-135.25"/>
</g>
<!-- github.com/ismdeep/station/app/server/global&#45;&gt;github.com/ismdeep/station/internal/schema -->
<g id="edge14" class="edge">
<title>github.com/ismdeep/station/app/server/global&#45;&gt;github.com/ismdeep/station/internal/schema</title>
<path fill="none" stroke="black" d="M808.67,-93.88C808.67,-93.88 808.67,-41.07 808.67,-41.07"/>
<polygon fill="black" stroke="black" points="810.42,-41.07 808.67,-36.07 806.92,-41.07 810.42,-41.07"/>
</g>
<!-- github.com/ismdeep/station/app/server/runner&#45;&gt;github.com/ismdeep/station/app/server/global -->
<g id="edge16" class="edge">
<title>github.com/ismdeep/station/app/server/runner&#45;&gt;github.com/ismdeep/station/app/server/global</title>
<path fill="none" stroke="black" d="M677.75,-187.88C677.75,-160.56 677.75,-112 677.75,-112 677.75,-112 687.4,-112 687.4,-112"/>
<polygon fill="black" stroke="black" points="687.4,-113.75 692.4,-112 687.4,-110.25 687.4,-113.75"/>
</g>
<!-- github.com/ismdeep/station/app/server/runner&#45;&gt;github.com/ismdeep/station/pkg/blog -->
<g id="edge17" class="edge">
<title>github.com/ismdeep/station/app/server/runner&#45;&gt;github.com/ismdeep/station/pkg/blog</title>
<path fill="none" stroke="black" d="M475.67,-187.88C475.67,-187.88 475.67,-135.07 475.67,-135.07"/>
<polygon fill="black" stroke="black" points="477.42,-135.07 475.67,-130.07 473.92,-135.07 477.42,-135.07"/>
</g>
<!-- github.com/ismdeep/station/pkg/blog&#45;&gt;github.com/ismdeep/station/internal/schema -->
<g id="edge35" class="edge">
<title>github.com/ismdeep/station/pkg/blog&#45;&gt;github.com/ismdeep/station/internal/schema</title>
<path fill="none" stroke="black" d="M522.5,-93.77C522.5,-67.99 522.5,-24 522.5,-24 522.5,-24 691.76,-24 691.76,-24"/>
<polygon fill="black" stroke="black" points="691.76,-25.75 696.76,-24 691.76,-22.25 691.76,-25.75"/>
</g>
<!-- github.com/ismdeep/station/pkg/github/release&#45;&gt;github.com/ismdeep/station/internal/schema -->
<g id="edge36" class="edge">
<title>github.com/ismdeep/station/pkg/github/release&#45;&gt;github.com/ismdeep/station/internal/schema</title>
<path fill="none" stroke="black" d="M176.5,-93.66C176.5,-64.79 176.5,-12 176.5,-12 176.5,-12 691.64,-12 691.64,-12"/>
<polygon fill="black" stroke="black" points="691.64,-13.75 696.64,-12 691.64,-10.25 691.64,-13.75"/>
</g>
<!-- github.com/ismdeep/station/cmd/server -->
<g id="node22" class="node">
<title>github.com/ismdeep/station/cmd/server</title>
<g id="a_node22"><a xlink:href="https://godoc.org/github.com/ismdeep/station/cmd/server" xlink:title="github.com/ismdeep/station/cmd/server" target="_blank">
<path fill="paleturquoise" stroke="paleturquoise" d="M1718.5,-506C1718.5,-506 1442.5,-506 1442.5,-506 1436.5,-506 1430.5,-500 1430.5,-494 1430.5,-494 1430.5,-482 1430.5,-482 1430.5,-476 1436.5,-470 1442.5,-470 1442.5,-470 1718.5,-470 1718.5,-470 1724.5,-470 1730.5,-476 1730.5,-482 1730.5,-482 1730.5,-494 1730.5,-494 1730.5,-500 1724.5,-506 1718.5,-506"/>
<text text-anchor="middle" x="1580.5" y="-484.3" font-family="Times,serif" font-size="14.00">github.com/ismdeep/station/cmd/server</text>
</a>
</g>
</g>
<!-- github.com/ismdeep/station/cmd/server&#45;&gt;github.com/ismdeep/station/app/server/api -->
<g id="edge32" class="edge">
<title>github.com/ismdeep/station/cmd/server&#45;&gt;github.com/ismdeep/station/app/server/api</title>
<path fill="none" stroke="black" d="M1695.33,-469.93C1695.33,-425.22 1695.33,-313 1695.33,-313 1695.33,-313 2596.85,-313 2596.85,-313"/>
<polygon fill="black" stroke="black" points="2596.85,-314.75 2601.85,-313 2596.85,-311.25 2596.85,-314.75"/>
</g>
<!-- github.com/ismdeep/station/cmd/server&#45;&gt;github.com/ismdeep/station/app/server/conf -->
<g id="edge33" class="edge">
<title>github.com/ismdeep/station/cmd/server&#45;&gt;github.com/ismdeep/station/app/server/conf</title>
<path fill="none" stroke="black" d="M1580.75,-469.93C1580.75,-384.7 1580.75,-27 1580.75,-27 1580.75,-27 1624.75,-27 1624.75,-27"/>
<polygon fill="black" stroke="black" points="1624.75,-28.75 1629.75,-27 1624.75,-25.25 1624.75,-28.75"/>
</g>
<!-- github.com/ismdeep/station/cmd/server&#45;&gt;github.com/ismdeep/station/app/server/cron -->
<g id="edge34" class="edge">
<title>github.com/ismdeep/station/cmd/server&#45;&gt;github.com/ismdeep/station/app/server/cron</title>
<path fill="none" stroke="black" d="M1501.17,-469.88C1501.17,-442.56 1501.17,-394 1501.17,-394 1501.17,-394 1419.57,-394 1419.57,-394"/>
<polygon fill="black" stroke="black" points="1419.57,-392.25 1414.57,-394 1419.57,-395.75 1419.57,-392.25"/>
</g>
</g>
</svg>
