<?xml version="1.0" encoding="UTF-8" standalone="no"?>
<!DOCTYPE svg PUBLIC "-//W3C//DTD SVG 1.1//EN"
 "http://www.w3.org/Graphics/SVG/1.1/DTD/svg11.dtd">
<!-- Generated by graphviz version 2.43.0 (0)
 -->
<!-- Title: godep Pages: 1 -->
<svg width="2114pt" height="514pt"
 viewBox="0.00 0.00 2113.50 514.00" xmlns="http://www.w3.org/2000/svg" xmlns:xlink="http://www.w3.org/1999/xlink">
<g id="graph0" class="graph" transform="scale(1 1) rotate(0) translate(4 510)">
<title>godep</title>
<polygon fill="white" stroke="transparent" points="-4,4 -4,-510 2109.5,-510 2109.5,4 -4,4"/>
<!-- app/server/api -->
<g id="node1" class="node">
<title>app/server/api</title>
<g id="a_node1"><a xlink:href="https://godoc.org/app/server/api" xlink:title="app/server/api" target="_blank">
<path fill="paleturquoise" stroke="paleturquoise" d="M1415.5,-318C1415.5,-318 1320.5,-318 1320.5,-318 1314.5,-318 1308.5,-312 1308.5,-306 1308.5,-306 1308.5,-294 1308.5,-294 1308.5,-288 1314.5,-282 1320.5,-282 1320.5,-282 1415.5,-282 1415.5,-282 1421.5,-282 1427.5,-288 1427.5,-294 1427.5,-294 1427.5,-306 1427.5,-306 1427.5,-312 1421.5,-318 1415.5,-318"/>
<text text-anchor="middle" x="1368" y="-296.3" font-family="Times,serif" font-size="14.00">app/server/api</text>
</a>
</g>
</g>
<!-- app/server/conf -->
<g id="node2" class="node">
<title>app/server/conf</title>
<g id="a_node2"><a xlink:href="https://godoc.org/app/server/conf" xlink:title="app/server/conf" target="_blank">
<path fill="paleturquoise" stroke="paleturquoise" d="M959,-36C959,-36 855,-36 855,-36 849,-36 843,-30 843,-24 843,-24 843,-12 843,-12 843,-6 849,0 855,0 855,0 959,0 959,0 965,0 971,-6 971,-12 971,-12 971,-24 971,-24 971,-30 965,-36 959,-36"/>
<text text-anchor="middle" x="907" y="-14.3" font-family="Times,serif" font-size="14.00">app/server/conf</text>
</a>
</g>
</g>
<!-- app/server/api&#45;&gt;app/server/conf -->
<g id="edge1" class="edge">
<title>app/server/api&#45;&gt;app/server/conf</title>
<path fill="none" stroke="black" d="M1365.75,-281.98C1365.75,-218.93 1365.75,-12 1365.75,-12 1365.75,-12 976.27,-12 976.27,-12"/>
<polygon fill="black" stroke="black" points="976.27,-10.25 971.27,-12 976.27,-13.75 976.27,-10.25"/>
</g>
<!-- app/server/heart -->
<g id="node3" class="node">
<title>app/server/heart</title>
<g id="a_node3"><a xlink:href="https://godoc.org/app/server/heart" xlink:title="app/server/heart" target="_blank">
<path fill="paleturquoise" stroke="paleturquoise" d="M963,-224C963,-224 851,-224 851,-224 845,-224 839,-218 839,-212 839,-212 839,-200 839,-200 839,-194 845,-188 851,-188 851,-188 963,-188 963,-188 969,-188 975,-194 975,-200 975,-200 975,-212 975,-212 975,-218 969,-224 963,-224"/>
<text text-anchor="middle" x="907" y="-202.3" font-family="Times,serif" font-size="14.00">app/server/heart</text>
</a>
</g>
</g>
<!-- app/server/api&#45;&gt;app/server/heart -->
<g id="edge2" class="edge">
<title>app/server/api&#45;&gt;app/server/heart</title>
<path fill="none" stroke="black" d="M1308.18,-300C1188.54,-300 931.17,-300 931.17,-300 931.17,-300 931.17,-229.12 931.17,-229.12"/>
<polygon fill="black" stroke="black" points="932.92,-229.12 931.17,-224.12 929.42,-229.12 932.92,-229.12"/>
</g>
<!-- app/server/store -->
<g id="node4" class="node">
<title>app/server/store</title>
<g id="a_node4"><a xlink:href="https://godoc.org/app/server/store" xlink:title="app/server/store" target="_blank">
<path fill="paleturquoise" stroke="paleturquoise" d="M1126,-224C1126,-224 1016,-224 1016,-224 1010,-224 1004,-218 1004,-212 1004,-212 1004,-200 1004,-200 1004,-194 1010,-188 1016,-188 1016,-188 1126,-188 1126,-188 1132,-188 1138,-194 1138,-200 1138,-200 1138,-212 1138,-212 1138,-218 1132,-224 1126,-224"/>
<text text-anchor="middle" x="1071" y="-202.3" font-family="Times,serif" font-size="14.00">app/server/store</text>
</a>
</g>
</g>
<!-- app/server/api&#45;&gt;app/server/store -->
<g id="edge3" class="edge">
<title>app/server/api&#45;&gt;app/server/store</title>
<path fill="none" stroke="black" d="M1308.4,-291C1227.62,-291 1093.33,-291 1093.33,-291 1093.33,-291 1093.33,-229.03 1093.33,-229.03"/>
<polygon fill="black" stroke="black" points="1095.08,-229.03 1093.33,-224.03 1091.58,-229.03 1095.08,-229.03"/>
</g>
<!-- internal/enums -->
<g id="node5" class="node">
<title>internal/enums</title>
<g id="a_node5"><a xlink:href="https://godoc.org/internal/enums" xlink:title="internal/enums" target="_blank">
<path fill="paleturquoise" stroke="paleturquoise" d="M1339.5,-224C1339.5,-224 1238.5,-224 1238.5,-224 1232.5,-224 1226.5,-218 1226.5,-212 1226.5,-212 1226.5,-200 1226.5,-200 1226.5,-194 1232.5,-188 1238.5,-188 1238.5,-188 1339.5,-188 1339.5,-188 1345.5,-188 1351.5,-194 1351.5,-200 1351.5,-200 1351.5,-212 1351.5,-212 1351.5,-218 1345.5,-224 1339.5,-224"/>
<text text-anchor="middle" x="1289" y="-202.3" font-family="Times,serif" font-size="14.00">internal/enums</text>
</a>
</g>
</g>
<!-- app/server/api&#45;&gt;internal/enums -->
<g id="edge4" class="edge">
<title>app/server/api&#45;&gt;internal/enums</title>
<path fill="none" stroke="black" d="M1330,-281.88C1330,-281.88 1330,-229.07 1330,-229.07"/>
<polygon fill="black" stroke="black" points="1331.75,-229.07 1330,-224.07 1328.25,-229.07 1331.75,-229.07"/>
</g>
<!-- internal/model -->
<g id="node6" class="node">
<title>internal/model</title>
<g id="a_node6"><a xlink:href="https://godoc.org/internal/model" xlink:title="internal/model" target="_blank">
<path fill="paleturquoise" stroke="paleturquoise" d="M1232.5,-130C1232.5,-130 1135.5,-130 1135.5,-130 1129.5,-130 1123.5,-124 1123.5,-118 1123.5,-118 1123.5,-106 1123.5,-106 1123.5,-100 1129.5,-94 1135.5,-94 1135.5,-94 1232.5,-94 1232.5,-94 1238.5,-94 1244.5,-100 1244.5,-106 1244.5,-106 1244.5,-118 1244.5,-118 1244.5,-124 1238.5,-130 1232.5,-130"/>
<text text-anchor="middle" x="1184" y="-108.3" font-family="Times,serif" font-size="14.00">internal/model</text>
</a>
</g>
</g>
<!-- app/server/api&#45;&gt;internal/model -->
<g id="edge5" class="edge">
<title>app/server/api&#45;&gt;internal/model</title>
<path fill="none" stroke="black" d="M1358.62,-281.88C1358.62,-235.85 1358.62,-118 1358.62,-118 1358.62,-118 1249.59,-118 1249.59,-118"/>
<polygon fill="black" stroke="black" points="1249.59,-116.25 1244.59,-118 1249.59,-119.75 1249.59,-116.25"/>
</g>
<!-- internal/request -->
<g id="node7" class="node">
<title>internal/request</title>
<g id="a_node7"><a xlink:href="https://godoc.org/internal/request" xlink:title="internal/request" target="_blank">
<path fill="paleturquoise" stroke="paleturquoise" d="M1501,-224C1501,-224 1393,-224 1393,-224 1387,-224 1381,-218 1381,-212 1381,-212 1381,-200 1381,-200 1381,-194 1387,-188 1393,-188 1393,-188 1501,-188 1501,-188 1507,-188 1513,-194 1513,-200 1513,-200 1513,-212 1513,-212 1513,-218 1507,-224 1501,-224"/>
<text text-anchor="middle" x="1447" y="-202.3" font-family="Times,serif" font-size="14.00">internal/request</text>
</a>
</g>
</g>
<!-- app/server/api&#45;&gt;internal/request -->
<g id="edge6" class="edge">
<title>app/server/api&#45;&gt;internal/request</title>
<path fill="none" stroke="black" d="M1404.25,-281.88C1404.25,-281.88 1404.25,-229.07 1404.25,-229.07"/>
<polygon fill="black" stroke="black" points="1406,-229.07 1404.25,-224.07 1402.5,-229.07 1406,-229.07"/>
</g>
<!-- internal/response -->
<g id="node8" class="node">
<title>internal/response</title>
<g id="a_node8"><a xlink:href="https://godoc.org/internal/response" xlink:title="internal/response" target="_blank">
<path fill="paleturquoise" stroke="paleturquoise" d="M1510,-130C1510,-130 1392,-130 1392,-130 1386,-130 1380,-124 1380,-118 1380,-118 1380,-106 1380,-106 1380,-100 1386,-94 1392,-94 1392,-94 1510,-94 1510,-94 1516,-94 1522,-100 1522,-106 1522,-106 1522,-118 1522,-118 1522,-124 1516,-130 1510,-130"/>
<text text-anchor="middle" x="1451" y="-108.3" font-family="Times,serif" font-size="14.00">internal/response</text>
</a>
</g>
</g>
<!-- app/server/api&#45;&gt;internal/response -->
<g id="edge7" class="edge">
<title>app/server/api&#45;&gt;internal/response</title>
<path fill="none" stroke="black" d="M1372.88,-281.75C1372.88,-233.46 1372.88,-106 1372.88,-106 1372.88,-106 1374.81,-106 1374.81,-106"/>
<polygon fill="black" stroke="black" points="1374.81,-107.75 1379.81,-106 1374.81,-104.25 1374.81,-107.75"/>
</g>
<!-- internal/version -->
<g id="node9" class="node">
<title>internal/version</title>
<g id="a_node9"><a xlink:href="https://godoc.org/internal/version" xlink:title="internal/version" target="_blank">
<path fill="paleturquoise" stroke="paleturquoise" d="M1719,-224C1719,-224 1613,-224 1613,-224 1607,-224 1601,-218 1601,-212 1601,-212 1601,-200 1601,-200 1601,-194 1607,-188 1613,-188 1613,-188 1719,-188 1719,-188 1725,-188 1731,-194 1731,-200 1731,-200 1731,-212 1731,-212 1731,-218 1725,-224 1719,-224"/>
<text text-anchor="middle" x="1666" y="-202.3" font-family="Times,serif" font-size="14.00">internal/version</text>
</a>
</g>
</g>
<!-- app/server/api&#45;&gt;internal/version -->
<g id="edge8" class="edge">
<title>app/server/api&#45;&gt;internal/version</title>
<path fill="none" stroke="black" d="M1427.59,-291C1514.55,-291 1666,-291 1666,-291 1666,-291 1666,-229.03 1666,-229.03"/>
<polygon fill="black" stroke="black" points="1667.75,-229.03 1666,-224.03 1664.25,-229.03 1667.75,-229.03"/>
</g>
<!-- pkg/middleware -->
<g id="node10" class="node">
<title>pkg/middleware</title>
<g id="a_node10"><a xlink:href="https://godoc.org/pkg/middleware" xlink:title="pkg/middleware" target="_blank">
<path fill="paleturquoise" stroke="paleturquoise" d="M1879.5,-224C1879.5,-224 1772.5,-224 1772.5,-224 1766.5,-224 1760.5,-218 1760.5,-212 1760.5,-212 1760.5,-200 1760.5,-200 1760.5,-194 1766.5,-188 1772.5,-188 1772.5,-188 1879.5,-188 1879.5,-188 1885.5,-188 1891.5,-194 1891.5,-200 1891.5,-200 1891.5,-212 1891.5,-212 1891.5,-218 1885.5,-224 1879.5,-224"/>
<text text-anchor="middle" x="1826" y="-202.3" font-family="Times,serif" font-size="14.00">pkg/middleware</text>
</a>
</g>
</g>
<!-- app/server/api&#45;&gt;pkg/middleware -->
<g id="edge9" class="edge">
<title>app/server/api&#45;&gt;pkg/middleware</title>
<path fill="none" stroke="black" d="M1427.88,-300C1552.02,-300 1826,-300 1826,-300 1826,-300 1826,-229.12 1826,-229.12"/>
<polygon fill="black" stroke="black" points="1827.75,-229.12 1826,-224.12 1824.25,-229.12 1827.75,-229.12"/>
</g>
<!-- pkg/quantumid -->
<g id="node11" class="node">
<title>pkg/quantumid</title>
<g id="a_node11"><a xlink:href="https://godoc.org/pkg/quantumid" xlink:title="pkg/quantumid" target="_blank">
<path fill="paleturquoise" stroke="paleturquoise" d="M2093.5,-224C2093.5,-224 1992.5,-224 1992.5,-224 1986.5,-224 1980.5,-218 1980.5,-212 1980.5,-212 1980.5,-200 1980.5,-200 1980.5,-194 1986.5,-188 1992.5,-188 1992.5,-188 2093.5,-188 2093.5,-188 2099.5,-188 2105.5,-194 2105.5,-200 2105.5,-200 2105.5,-212 2105.5,-212 2105.5,-218 2099.5,-224 2093.5,-224"/>
<text text-anchor="middle" x="2043" y="-202.3" font-family="Times,serif" font-size="14.00">pkg/quantumid</text>
</a>
</g>
</g>
<!-- app/server/api&#45;&gt;pkg/quantumid -->
<g id="edge10" class="edge">
<title>app/server/api&#45;&gt;pkg/quantumid</title>
<path fill="none" stroke="black" d="M1427.61,-309C1592.56,-309 2043,-309 2043,-309 2043,-309 2043,-229.41 2043,-229.41"/>
<polygon fill="black" stroke="black" points="2044.75,-229.41 2043,-224.41 2041.25,-229.41 2044.75,-229.41"/>
</g>
<!-- pkg/youtube -->
<g id="node12" class="node">
<title>pkg/youtube</title>
<g id="a_node12"><a xlink:href="https://godoc.org/pkg/youtube" xlink:title="pkg/youtube" target="_blank">
<path fill="paleturquoise" stroke="paleturquoise" d="M738.5,-224C738.5,-224 657.5,-224 657.5,-224 651.5,-224 645.5,-218 645.5,-212 645.5,-212 645.5,-200 645.5,-200 645.5,-194 651.5,-188 657.5,-188 657.5,-188 738.5,-188 738.5,-188 744.5,-188 750.5,-194 750.5,-200 750.5,-200 750.5,-212 750.5,-212 750.5,-218 744.5,-224 738.5,-224"/>
<text text-anchor="middle" x="698" y="-202.3" font-family="Times,serif" font-size="14.00">pkg/youtube</text>
</a>
</g>
</g>
<!-- app/server/api&#45;&gt;pkg/youtube -->
<g id="edge11" class="edge">
<title>app/server/api&#45;&gt;pkg/youtube</title>
<path fill="none" stroke="black" d="M1308.38,-309C1146.79,-309 712.5,-309 712.5,-309 712.5,-309 712.5,-229.41 712.5,-229.41"/>
<polygon fill="black" stroke="black" points="714.25,-229.41 712.5,-224.41 710.75,-229.41 714.25,-229.41"/>
</g>
<!-- app/server/cache -->
<g id="node13" class="node">
<title>app/server/cache</title>
<g id="a_node13"><a xlink:href="https://godoc.org/app/server/cache" xlink:title="app/server/cache" target="_blank">
<path fill="paleturquoise" stroke="paleturquoise" d="M964,-130C964,-130 850,-130 850,-130 844,-130 838,-124 838,-118 838,-118 838,-106 838,-106 838,-100 844,-94 850,-94 850,-94 964,-94 964,-94 970,-94 976,-100 976,-106 976,-106 976,-118 976,-118 976,-124 970,-130 964,-130"/>
<text text-anchor="middle" x="907" y="-108.3" font-family="Times,serif" font-size="14.00">app/server/cache</text>
</a>
</g>
</g>
<!-- app/server/heart&#45;&gt;app/server/cache -->
<g id="edge15" class="edge">
<title>app/server/heart&#45;&gt;app/server/cache</title>
<path fill="none" stroke="black" d="M907,-187.88C907,-187.88 907,-135.07 907,-135.07"/>
<polygon fill="black" stroke="black" points="908.75,-135.07 907,-130.07 905.25,-135.07 908.75,-135.07"/>
</g>
<!-- app/server/store&#45;&gt;app/server/conf -->
<g id="edge18" class="edge">
<title>app/server/store&#45;&gt;app/server/conf</title>
<path fill="none" stroke="black" d="M1083.67,-187.88C1083.67,-141.85 1083.67,-24 1083.67,-24 1083.67,-24 976.03,-24 976.03,-24"/>
<polygon fill="black" stroke="black" points="976.03,-22.25 971.03,-24 976.03,-25.75 976.03,-22.25"/>
</g>
<!-- app/server/store&#45;&gt;internal/model -->
<g id="edge19" class="edge">
<title>app/server/store&#45;&gt;internal/model</title>
<path fill="none" stroke="black" d="M1128.33,-187.88C1128.33,-187.88 1128.33,-135.07 1128.33,-135.07"/>
<polygon fill="black" stroke="black" points="1130.08,-135.07 1128.33,-130.07 1126.58,-135.07 1130.08,-135.07"/>
</g>
<!-- app/server/store&#45;&gt;internal/response -->
<g id="edge20" class="edge">
<title>app/server/store&#45;&gt;internal/response</title>
<path fill="none" stroke="black" d="M1133.17,-187.89C1133.17,-178.1 1133.17,-168 1133.17,-168 1133.17,-168 1447,-168 1447,-168 1447,-168 1447,-135.03 1447,-135.03"/>
<polygon fill="black" stroke="black" points="1448.75,-135.03 1447,-130.03 1445.25,-135.03 1448.75,-135.03"/>
</g>
<!-- internal/schema -->
<g id="node17" class="node">
<title>internal/schema</title>
<g id="a_node17"><a xlink:href="https://godoc.org/internal/schema" xlink:title="internal/schema" target="_blank">
<path fill="paleturquoise" stroke="paleturquoise" d="M415.5,-36C415.5,-36 308.5,-36 308.5,-36 302.5,-36 296.5,-30 296.5,-24 296.5,-24 296.5,-12 296.5,-12 296.5,-6 302.5,0 308.5,0 308.5,0 415.5,0 415.5,0 421.5,0 427.5,-6 427.5,-12 427.5,-12 427.5,-24 427.5,-24 427.5,-30 421.5,-36 415.5,-36"/>
<text text-anchor="middle" x="362" y="-14.3" font-family="Times,serif" font-size="14.00">internal/schema</text>
</a>
</g>
</g>
<!-- app/server/store&#45;&gt;internal/schema -->
<g id="edge21" class="edge">
<title>app/server/store&#45;&gt;internal/schema</title>
<path fill="none" stroke="black" d="M1043.83,-187.86C1043.83,-149.77 1043.83,-65 1043.83,-65 1043.83,-65 383.83,-65 383.83,-65 383.83,-65 383.83,-41.04 383.83,-41.04"/>
<polygon fill="black" stroke="black" points="385.58,-41.04 383.83,-36.04 382.08,-41.04 385.58,-41.04"/>
</g>
<!-- app/server/cache&#45;&gt;app/server/conf -->
<g id="edge12" class="edge">
<title>app/server/cache&#45;&gt;app/server/conf</title>
<path fill="none" stroke="black" d="M907,-93.88C907,-93.88 907,-41.07 907,-41.07"/>
<polygon fill="black" stroke="black" points="908.75,-41.07 907,-36.07 905.25,-41.07 908.75,-41.07"/>
</g>
<!-- app/server/cron -->
<g id="node14" class="node">
<title>app/server/cron</title>
<g id="a_node14"><a xlink:href="https://godoc.org/app/server/cron" xlink:title="app/server/cron" target="_blank">
<path fill="paleturquoise" stroke="paleturquoise" d="M666.5,-412C666.5,-412 561.5,-412 561.5,-412 555.5,-412 549.5,-406 549.5,-400 549.5,-400 549.5,-388 549.5,-388 549.5,-382 555.5,-376 561.5,-376 561.5,-376 666.5,-376 666.5,-376 672.5,-376 678.5,-382 678.5,-388 678.5,-388 678.5,-400 678.5,-400 678.5,-406 672.5,-412 666.5,-412"/>
<text text-anchor="middle" x="614" y="-390.3" font-family="Times,serif" font-size="14.00">app/server/cron</text>
</a>
</g>
</g>
<!-- app/server/worker -->
<g id="node15" class="node">
<title>app/server/worker</title>
<g id="a_node15"><a xlink:href="https://godoc.org/app/server/worker" xlink:title="app/server/worker" target="_blank">
<path fill="paleturquoise" stroke="paleturquoise" d="M604,-318C604,-318 480,-318 480,-318 474,-318 468,-312 468,-306 468,-306 468,-294 468,-294 468,-288 474,-282 480,-282 480,-282 604,-282 604,-282 610,-282 616,-288 616,-294 616,-294 616,-306 616,-306 616,-312 610,-318 604,-318"/>
<text text-anchor="middle" x="542" y="-296.3" font-family="Times,serif" font-size="14.00">app/server/worker</text>
</a>
</g>
</g>
<!-- app/server/cron&#45;&gt;app/server/worker -->
<g id="edge13" class="edge">
<title>app/server/cron&#45;&gt;app/server/worker</title>
<path fill="none" stroke="black" d="M582.75,-375.88C582.75,-375.88 582.75,-323.07 582.75,-323.07"/>
<polygon fill="black" stroke="black" points="584.5,-323.07 582.75,-318.07 581,-323.07 584.5,-323.07"/>
</g>
<!-- app/server/worker&#45;&gt;app/server/conf -->
<g id="edge22" class="edge">
<title>app/server/worker&#45;&gt;app/server/conf</title>
<path fill="none" stroke="black" d="M586.5,-281.93C586.5,-219.69 586.5,-18 586.5,-18 586.5,-18 837.91,-18 837.91,-18"/>
<polygon fill="black" stroke="black" points="837.91,-19.75 842.91,-18 837.91,-16.25 837.91,-19.75"/>
</g>
<!-- app/server/worker&#45;&gt;app/server/heart -->
<g id="edge24" class="edge">
<title>app/server/worker&#45;&gt;app/server/heart</title>
<path fill="none" stroke="black" d="M616.08,-295C717.55,-295 887.33,-295 887.33,-295 887.33,-295 887.33,-229.01 887.33,-229.01"/>
<polygon fill="black" stroke="black" points="889.08,-229.01 887.33,-224.01 885.58,-229.01 889.08,-229.01"/>
</g>
<!-- app/server/worker&#45;&gt;app/server/store -->
<g id="edge26" class="edge">
<title>app/server/worker&#45;&gt;app/server/store</title>
<path fill="none" stroke="black" d="M616.22,-304C756.95,-304 1048.67,-304 1048.67,-304 1048.67,-304 1048.67,-229.43 1048.67,-229.43"/>
<polygon fill="black" stroke="black" points="1050.42,-229.43 1048.67,-224.43 1046.92,-229.43 1050.42,-229.43"/>
</g>
<!-- app/server/worker&#45;&gt;pkg/youtube -->
<g id="edge31" class="edge">
<title>app/server/worker&#45;&gt;pkg/youtube</title>
<path fill="none" stroke="black" d="M616.29,-286C640.84,-286 662,-286 662,-286 662,-286 662,-229.15 662,-229.15"/>
<polygon fill="black" stroke="black" points="663.75,-229.15 662,-224.15 660.25,-229.15 663.75,-229.15"/>
</g>
<!-- app/server/global -->
<g id="node16" class="node">
<title>app/server/global</title>
<g id="a_node16"><a xlink:href="https://godoc.org/app/server/global" xlink:title="app/server/global" target="_blank">
<path fill="paleturquoise" stroke="paleturquoise" d="M420.5,-130C420.5,-130 303.5,-130 303.5,-130 297.5,-130 291.5,-124 291.5,-118 291.5,-118 291.5,-106 291.5,-106 291.5,-100 297.5,-94 303.5,-94 303.5,-94 420.5,-94 420.5,-94 426.5,-94 432.5,-100 432.5,-106 432.5,-106 432.5,-118 432.5,-118 432.5,-124 426.5,-130 420.5,-130"/>
<text text-anchor="middle" x="362" y="-108.3" font-family="Times,serif" font-size="14.00">app/server/global</text>
</a>
</g>
</g>
<!-- app/server/worker&#45;&gt;app/server/global -->
<g id="edge23" class="edge">
<title>app/server/worker&#45;&gt;app/server/global</title>
<path fill="none" stroke="black" d="M467.75,-291C418.16,-291 362,-291 362,-291 362,-291 362,-135.15 362,-135.15"/>
<polygon fill="black" stroke="black" points="363.75,-135.15 362,-130.15 360.25,-135.15 363.75,-135.15"/>
</g>
<!-- app/server/worker&#45;&gt;internal/schema -->
<g id="edge27" class="edge">
<title>app/server/worker&#45;&gt;internal/schema</title>
<path fill="none" stroke="black" d="M557,-281.8C557,-218.09 557,-9 557,-9 557,-9 432.75,-9 432.75,-9"/>
<polygon fill="black" stroke="black" points="432.75,-7.25 427.75,-9 432.75,-10.75 432.75,-7.25"/>
</g>
<!-- app/server/runner -->
<g id="node18" class="node">
<title>app/server/runner</title>
<g id="a_node18"><a xlink:href="https://godoc.org/app/server/runner" xlink:title="app/server/runner" target="_blank">
<path fill="paleturquoise" stroke="paleturquoise" d="M306,-224C306,-224 184,-224 184,-224 178,-224 172,-218 172,-212 172,-212 172,-200 172,-200 172,-194 178,-188 184,-188 184,-188 306,-188 306,-188 312,-188 318,-194 318,-200 318,-200 318,-212 318,-212 318,-218 312,-224 306,-224"/>
<text text-anchor="middle" x="245" y="-202.3" font-family="Times,serif" font-size="14.00">app/server/runner</text>
</a>
</g>
</g>
<!-- app/server/worker&#45;&gt;app/server/runner -->
<g id="edge25" class="edge">
<title>app/server/worker&#45;&gt;app/server/runner</title>
<path fill="none" stroke="black" d="M467.82,-300C379.85,-300 245,-300 245,-300 245,-300 245,-229.12 245,-229.12"/>
<polygon fill="black" stroke="black" points="246.75,-229.12 245,-224.12 243.25,-229.12 246.75,-229.12"/>
</g>
<!-- pkg/blog -->
<g id="node19" class="node">
<title>pkg/blog</title>
<g id="a_node19"><a xlink:href="https://godoc.org/pkg/blog" xlink:title="pkg/blog" target="_blank">
<path fill="paleturquoise" stroke="paleturquoise" d="M250,-130C250,-130 196,-130 196,-130 190,-130 184,-124 184,-118 184,-118 184,-106 184,-106 184,-100 190,-94 196,-94 196,-94 250,-94 250,-94 256,-94 262,-100 262,-106 262,-106 262,-118 262,-118 262,-124 256,-130 250,-130"/>
<text text-anchor="middle" x="223" y="-108.3" font-family="Times,serif" font-size="14.00">pkg/blog</text>
</a>
</g>
</g>
<!-- app/server/worker&#45;&gt;pkg/blog -->
<g id="edge29" class="edge">
<title>app/server/worker&#45;&gt;pkg/blog</title>
<path fill="none" stroke="black" d="M527.5,-281.79C527.5,-241.62 527.5,-149 527.5,-149 527.5,-149 236,-149 236,-149 236,-149 236,-135.07 236,-135.07"/>
<polygon fill="black" stroke="black" points="237.75,-135.07 236,-130.07 234.25,-135.07 237.75,-135.07"/>
</g>
<!-- pkg/bilibili -->
<g id="node20" class="node">
<title>pkg/bilibili</title>
<g id="a_node20"><a xlink:href="https://godoc.org/pkg/bilibili" xlink:title="pkg/bilibili" target="_blank">
<path fill="paleturquoise" stroke="paleturquoise" d="M486,-224C486,-224 418,-224 418,-224 412,-224 406,-218 406,-212 406,-212 406,-200 406,-200 406,-194 412,-188 418,-188 418,-188 486,-188 486,-188 492,-188 498,-194 498,-200 498,-200 498,-212 498,-212 498,-218 492,-224 486,-224"/>
<text text-anchor="middle" x="452" y="-202.3" font-family="Times,serif" font-size="14.00">pkg/bilibili</text>
</a>
</g>
</g>
<!-- app/server/worker&#45;&gt;pkg/bilibili -->
<g id="edge28" class="edge">
<title>app/server/worker&#45;&gt;pkg/bilibili</title>
<path fill="none" stroke="black" d="M483,-281.88C483,-281.88 483,-229.07 483,-229.07"/>
<polygon fill="black" stroke="black" points="484.75,-229.07 483,-224.07 481.25,-229.07 484.75,-229.07"/>
</g>
<!-- pkg/github/release -->
<g id="node21" class="node">
<title>pkg/github/release</title>
<g id="a_node21"><a xlink:href="https://godoc.org/pkg/github/release" xlink:title="pkg/github/release" target="_blank">
<path fill="paleturquoise" stroke="paleturquoise" d="M138,-130C138,-130 12,-130 12,-130 6,-130 0,-124 0,-118 0,-118 0,-106 0,-106 0,-100 6,-94 12,-94 12,-94 138,-94 138,-94 144,-94 150,-100 150,-106 150,-106 150,-118 150,-118 150,-124 144,-130 138,-130"/>
<text text-anchor="middle" x="75" y="-108.3" font-family="Times,serif" font-size="14.00">pkg/github/release</text>
</a>
</g>
</g>
<!-- app/server/worker&#45;&gt;pkg/github/release -->
<g id="edge30" class="edge">
<title>app/server/worker&#45;&gt;pkg/github/release</title>
<path fill="none" stroke="black" d="M467.74,-309C335.98,-309 75,-309 75,-309 75,-309 75,-135.18 75,-135.18"/>
<polygon fill="black" stroke="black" points="76.75,-135.18 75,-130.18 73.25,-135.18 76.75,-135.18"/>
</g>
<!-- app/server/global&#45;&gt;internal/schema -->
<g id="edge14" class="edge">
<title>app/server/global&#45;&gt;internal/schema</title>
<path fill="none" stroke="black" d="M340.17,-93.88C340.17,-93.88 340.17,-41.07 340.17,-41.07"/>
<polygon fill="black" stroke="black" points="341.92,-41.07 340.17,-36.07 338.42,-41.07 341.92,-41.07"/>
</g>
<!-- app/server/runner&#45;&gt;app/server/global -->
<g id="edge16" class="edge">
<title>app/server/runner&#45;&gt;app/server/global</title>
<path fill="none" stroke="black" d="M304.75,-187.88C304.75,-187.88 304.75,-135.07 304.75,-135.07"/>
<polygon fill="black" stroke="black" points="306.5,-135.07 304.75,-130.07 303,-135.07 306.5,-135.07"/>
</g>
<!-- app/server/runner&#45;&gt;pkg/blog -->
<g id="edge17" class="edge">
<title>app/server/runner&#45;&gt;pkg/blog</title>
<path fill="none" stroke="black" d="M210,-187.88C210,-187.88 210,-135.07 210,-135.07"/>
<polygon fill="black" stroke="black" points="211.75,-135.07 210,-130.07 208.25,-135.07 211.75,-135.07"/>
</g>
<!-- pkg/blog&#45;&gt;internal/schema -->
<g id="edge35" class="edge">
<title>pkg/blog&#45;&gt;internal/schema</title>
<path fill="none" stroke="black" d="M223,-93.77C223,-67.99 223,-24 223,-24 223,-24 291.16,-24 291.16,-24"/>
<polygon fill="black" stroke="black" points="291.16,-25.75 296.16,-24 291.16,-22.25 291.16,-25.75"/>
</g>
<!-- pkg/github/release&#45;&gt;internal/schema -->
<g id="edge36" class="edge">
<title>pkg/github/release&#45;&gt;internal/schema</title>
<path fill="none" stroke="black" d="M75,-93.66C75,-64.79 75,-12 75,-12 75,-12 291.16,-12 291.16,-12"/>
<polygon fill="black" stroke="black" points="291.16,-13.75 296.16,-12 291.16,-10.25 291.16,-13.75"/>
</g>
<!-- cmd/server -->
<g id="node22" class="node">
<title>cmd/server</title>
<g id="a_node22"><a xlink:href="https://godoc.org/cmd/server" xlink:title="cmd/server" target="_blank">
<path fill="paleturquoise" stroke="paleturquoise" d="M831.5,-506C831.5,-506 758.5,-506 758.5,-506 752.5,-506 746.5,-500 746.5,-494 746.5,-494 746.5,-482 746.5,-482 746.5,-476 752.5,-470 758.5,-470 758.5,-470 831.5,-470 831.5,-470 837.5,-470 843.5,-476 843.5,-482 843.5,-482 843.5,-494 843.5,-494 843.5,-500 837.5,-506 831.5,-506"/>
<text text-anchor="middle" x="795" y="-484.3" font-family="Times,serif" font-size="14.00">cmd/server</text>
</a>
</g>
</g>
<!-- cmd/server&#45;&gt;app/server/api -->
<g id="edge32" class="edge">
<title>cmd/server&#45;&gt;app/server/api</title>
<path fill="none" stroke="black" d="M816.12,-469.93C816.12,-425.22 816.12,-313 816.12,-313 816.12,-313 1303.42,-313 1303.42,-313"/>
<polygon fill="black" stroke="black" points="1303.42,-314.75 1308.42,-313 1303.42,-311.25 1303.42,-314.75"/>
</g>
<!-- cmd/server&#45;&gt;app/server/conf -->
<g id="edge33" class="edge">
<title>cmd/server&#45;&gt;app/server/conf</title>
<path fill="none" stroke="black" d="M794.25,-469.93C794.25,-384.7 794.25,-27 794.25,-27 794.25,-27 837.72,-27 837.72,-27"/>
<polygon fill="black" stroke="black" points="837.72,-28.75 842.72,-27 837.72,-25.25 837.72,-28.75"/>
</g>
<!-- cmd/server&#45;&gt;app/server/cron -->
<g id="edge34" class="edge">
<title>cmd/server&#45;&gt;app/server/cron</title>
<path fill="none" stroke="black" d="M772.38,-469.88C772.38,-442.56 772.38,-394 772.38,-394 772.38,-394 683.87,-394 683.87,-394"/>
<polygon fill="black" stroke="black" points="683.87,-392.25 678.87,-394 683.87,-395.75 683.87,-392.25"/>
</g>
</g>
</svg>
